<?xml version="1.0" encoding="UTF-8" standalone="no"?>
<!DOCTYPE svg PUBLIC "-//W3C//DTD SVG 1.1//EN"
 "http://www.w3.org/Graphics/SVG/1.1/DTD/svg11.dtd">
<!-- Generated by graphviz version 2.43.0 (0)
 -->
<!-- Title: ps::odbc::OdbcInterface Pages: 1 -->
<svg width="133pt" height="457pt"
 viewBox="0.00 0.00 133.00 457.00" xmlns="http://www.w3.org/2000/svg" xmlns:xlink="http://www.w3.org/1999/xlink">
<g id="graph0" class="graph" transform="scale(1 1) rotate(0) translate(4 453)">
<title>ps::odbc::OdbcInterface</title>
<!-- Node1 -->
<g id="Node000001" class="node">
<title>Node1</title>
<g id="a_Node000001"><a xlink:title="Defines the interface for ODBC operations.">
<polygon fill="#999999" stroke="transparent" points="125,-449 0,-449 0,-235 125,-235 125,-449"/>
<text text-anchor="start" x="5.5" y="-437" font-family="Helvetica,sans-Serif" font-size="10.00">ps::odbc::OdbcInterface</text>
<text text-anchor="start" x="61" y="-422" font-family="Helvetica,sans-Serif" font-size="10.00"> </text>
<text text-anchor="start" x="5" y="-407" font-family="Helvetica,sans-Serif" font-size="10.00">+</text>
<text text-anchor="start" x="18.5" y="-407" font-family="Helvetica,sans-Serif" font-size="10.00">SQLAllocHandle()</text>
<text text-anchor="start" x="5" y="-392" font-family="Helvetica,sans-Serif" font-size="10.00">+</text>
<text text-anchor="start" x="18.5" y="-392" font-family="Helvetica,sans-Serif" font-size="10.00">SQLConnect()</text>
<text text-anchor="start" x="5" y="-377" font-family="Helvetica,sans-Serif" font-size="10.00">+</text>
<text text-anchor="start" x="18.5" y="-377" font-family="Helvetica,sans-Serif" font-size="10.00">SQLDisconnect()</text>
<text text-anchor="start" x="5" y="-362" font-family="Helvetica,sans-Serif" font-size="10.00">+</text>
<text text-anchor="start" x="18.5" y="-362" font-family="Helvetica,sans-Serif" font-size="10.00">SQLExecDirect()</text>
<text text-anchor="start" x="5" y="-347" font-family="Helvetica,sans-Serif" font-size="10.00">+</text>
<text text-anchor="start" x="18.5" y="-347" font-family="Helvetica,sans-Serif" font-size="10.00">SQLFetch()</text>
<text text-anchor="start" x="5" y="-332" font-family="Helvetica,sans-Serif" font-size="10.00">+</text>
<text text-anchor="start" x="18.5" y="-332" font-family="Helvetica,sans-Serif" font-size="10.00">SQLFreeHandle()</text>
<text text-anchor="start" x="5" y="-317" font-family="Helvetica,sans-Serif" font-size="10.00">+</text>
<text text-anchor="start" x="18.5" y="-317" font-family="Helvetica,sans-Serif" font-size="10.00">SQLGetData()</text>
<text text-anchor="start" x="5" y="-302" font-family="Helvetica,sans-Serif" font-size="10.00">+</text>
<text text-anchor="start" x="18.5" y="-302" font-family="Helvetica,sans-Serif" font-size="10.00">SQLGetDiagRec()</text>
<text text-anchor="start" x="5" y="-287" font-family="Helvetica,sans-Serif" font-size="10.00">+</text>
<text text-anchor="start" x="18.5" y="-287" font-family="Helvetica,sans-Serif" font-size="10.00">SQLNumResultCols()</text>
<text text-anchor="start" x="5" y="-272" font-family="Helvetica,sans-Serif" font-size="10.00">+</text>
<text text-anchor="start" x="18.5" y="-272" font-family="Helvetica,sans-Serif" font-size="10.00">SQLRowCount()</text>
<text text-anchor="start" x="5" y="-257" font-family="Helvetica,sans-Serif" font-size="10.00">+</text>
<text text-anchor="start" x="18.5" y="-257" font-family="Helvetica,sans-Serif" font-size="10.00">SQLSetEnvAttr()</text>
<text text-anchor="start" x="5" y="-242" font-family="Helvetica,sans-Serif" font-size="10.00">+</text>
<text text-anchor="start" x="18.5" y="-242" font-family="Helvetica,sans-Serif" font-size="10.00">~OdbcInterface()</text>
<polygon fill="#666666" stroke="#666666" points="0.5,-432 0.5,-432 125.5,-432 125.5,-432 0.5,-432"/>
<polygon fill="#666666" stroke="#666666" points="0.5,-417 0.5,-417 125.5,-417 125.5,-417 0.5,-417"/>
<polygon fill="none" stroke="#666666" points="0,-235 0,-449 125,-449 125,-235 0,-235"/>
</a>
</g>
</g>
<!-- Node2 -->
<g id="Node000002" class="node">
<title>Node2</title>
<g id="a_Node000002"><a xlink:href="classps_1_1odbc_1_1OdbcExecutor.html" target="_top" xlink:title="Implements the ODBC interface for executing ODBC operations.">
<polygon fill="white" stroke="transparent" points="124.5,-199 0.5,-199 0.5,0 124.5,0 124.5,-199"/>
<text text-anchor="start" x="5.5" y="-186.5" font-family="Helvetica,sans-Serif" font-size="10.00">ps::odbc::OdbcExecutor</text>
<text text-anchor="start" x="60.5" y="-171.5" font-family="Helvetica,sans-Serif" font-size="10.00"> </text>
<text text-anchor="start" x="4.5" y="-156.5" font-family="Helvetica,sans-Serif" font-size="10.00">+</text>
<text text-anchor="start" x="17.5" y="-156.5" font-family="Helvetica,sans-Serif" font-size="10.00">SQLAllocHandle()</text>
<text text-anchor="start" x="4.5" y="-141.5" font-family="Helvetica,sans-Serif" font-size="10.00">+</text>
<text text-anchor="start" x="17.5" y="-141.5" font-family="Helvetica,sans-Serif" font-size="10.00">SQLConnect()</text>
<text text-anchor="start" x="4.5" y="-126.5" font-family="Helvetica,sans-Serif" font-size="10.00">+</text>
<text text-anchor="start" x="17.5" y="-126.5" font-family="Helvetica,sans-Serif" font-size="10.00">SQLDisconnect()</text>
<text text-anchor="start" x="4.5" y="-111.5" font-family="Helvetica,sans-Serif" font-size="10.00">+</text>
<text text-anchor="start" x="17.5" y="-111.5" font-family="Helvetica,sans-Serif" font-size="10.00">SQLExecDirect()</text>
<text text-anchor="start" x="4.5" y="-96.5" font-family="Helvetica,sans-Serif" font-size="10.00">+</text>
<text text-anchor="start" x="17.5" y="-96.5" font-family="Helvetica,sans-Serif" font-size="10.00">SQLFetch()</text>
<text text-anchor="start" x="4.5" y="-81.5" font-family="Helvetica,sans-Serif" font-size="10.00">+</text>
<text text-anchor="start" x="17.5" y="-81.5" font-family="Helvetica,sans-Serif" font-size="10.00">SQLFreeHandle()</text>
<text text-anchor="start" x="4.5" y="-66.5" font-family="Helvetica,sans-Serif" font-size="10.00">+</text>
<text text-anchor="start" x="17.5" y="-66.5" font-family="Helvetica,sans-Serif" font-size="10.00">SQLGetData()</text>
<text text-anchor="start" x="4.5" y="-51.5" font-family="Helvetica,sans-Serif" font-size="10.00">+</text>
<text text-anchor="start" x="17.5" y="-51.5" font-family="Helvetica,sans-Serif" font-size="10.00">SQLGetDiagRec()</text>
<text text-anchor="start" x="4.5" y="-36.5" font-family="Helvetica,sans-Serif" font-size="10.00">+</text>
<text text-anchor="start" x="17.5" y="-36.5" font-family="Helvetica,sans-Serif" font-size="10.00">SQLNumResultCols()</text>
<text text-anchor="start" x="4.5" y="-21.5" font-family="Helvetica,sans-Serif" font-size="10.00">+</text>
<text text-anchor="start" x="17.5" y="-21.5" font-family="Helvetica,sans-Serif" font-size="10.00">SQLRowCount()</text>
<text text-anchor="start" x="4.5" y="-6.5" font-family="Helvetica,sans-Serif" font-size="10.00">+</text>
<text text-anchor="start" x="17.5" y="-6.5" font-family="Helvetica,sans-Serif" font-size="10.00">SQLSetEnvAttr()</text>
<polygon fill="#666666" stroke="#666666" points="0.5,-181.5 0.5,-181.5 124.5,-181.5 124.5,-181.5 0.5,-181.5"/>
<polygon fill="#666666" stroke="#666666" points="0.5,-166.5 0.5,-166.5 124.5,-166.5 124.5,-166.5 0.5,-166.5"/>
<polygon fill="none" stroke="#666666" points="0.5,0 0.5,-199 124.5,-199 124.5,0 0.5,0"/>
</a>
</g>
</g>
<!-- Node1&#45;&gt;Node2 -->
<g id="edge1_Node000001_Node000002" class="edge">
<title>Node1&#45;&gt;Node2</title>
<g id="a_edge1_Node000001_Node000002"><a xlink:title=" ">
<path fill="none" stroke="#63b8ff" d="M62.5,-224.8C62.5,-216.25 62.5,-207.67 62.5,-199.24"/>
<polygon fill="none" stroke="#63b8ff" points="59,-224.81 62.5,-234.81 66,-224.81 59,-224.81"/>
</a>
</g>
</g>
</g>
</svg>
