<?xml version="1.0" encoding="UTF-8" standalone="no"?>
<!DOCTYPE svg PUBLIC "-//W3C//DTD SVG 1.1//EN"
 "http://www.w3.org/Graphics/SVG/1.1/DTD/svg11.dtd">
<!-- Generated by graphviz version 2.43.0 (0)
 -->
<!-- Title: ps::odbc::OdbcLogger::logInfo Pages: 1 -->
<svg width="459pt" height="375pt"
 viewBox="0.00 0.00 459.00 375.00" xmlns="http://www.w3.org/2000/svg" xmlns:xlink="http://www.w3.org/1999/xlink">
<g id="graph0" class="graph" transform="scale(1 1) rotate(0) translate(4 371)">
<title>ps::odbc::OdbcLogger::logInfo</title>
<!-- Node1 -->
<g id="Node000001" class="node">
<title>Node1</title>
<g id="a_Node000001"><a xlink:title="Logs an informational message.">
<polygon fill="#999999" stroke="#666666" points="451,-207 330,-207 330,-177 451,-177 451,-207"/>
<text text-anchor="start" x="338" y="-195" font-family="Helvetica,sans-Serif" font-size="10.00">ps::odbc::OdbcLogger</text>
<text text-anchor="middle" x="390.5" y="-184" font-family="Helvetica,sans-Serif" font-size="10.00">::logInfo</text>
</a>
</g>
</g>
<!-- Node2 -->
<g id="Node000002" class="node">
<title>Node2</title>
<g id="a_Node000002"><a xlink:href="classps_1_1odbc_1_1OdbcWrapper.html#a8c00d96fa10167139bc614134c891883" target="_top" xlink:title="Establishes a connection to the database.">
<polygon fill="white" stroke="#666666" points="129,-367 0,-367 0,-337 129,-337 129,-367"/>
<text text-anchor="start" x="8" y="-355" font-family="Helvetica,sans-Serif" font-size="10.00">ps::odbc::OdbcWrapper</text>
<text text-anchor="middle" x="64.5" y="-344" font-family="Helvetica,sans-Serif" font-size="10.00">::connect</text>
</a>
</g>
</g>
<!-- Node1&#45;&gt;Node2 -->
<g id="edge1_Node000001_Node000002" class="edge">
<title>Node1&#45;&gt;Node2</title>
<g id="a_edge1_Node000001_Node000002"><a xlink:title=" ">
<path fill="none" stroke="#63b8ff" d="M378.85,-216.41C364.35,-246.46 335.37,-296.53 294,-321 244.12,-350.5 177.6,-356.55 129.19,-356.24"/>
<polygon fill="#63b8ff" stroke="#63b8ff" points="382.16,-217.59 383.21,-207.05 375.82,-214.64 382.16,-217.59"/>
</a>
</g>
</g>
<!-- Node3 -->
<g id="Node000003" class="node">
<title>Node3</title>
<g id="a_Node000003"><a xlink:href="classps_1_1odbc_1_1OdbcWrapper.html#a775ee4634d9a0d13d74a2d1032de313a" target="_top" xlink:title="Disconnects from the database and releases the connection handle.">
<polygon fill="white" stroke="#666666" points="294,-164 165,-164 165,-134 294,-134 294,-164"/>
<text text-anchor="start" x="173" y="-152" font-family="Helvetica,sans-Serif" font-size="10.00">ps::odbc::OdbcWrapper</text>
<text text-anchor="middle" x="229.5" y="-141" font-family="Helvetica,sans-Serif" font-size="10.00">::disconnect</text>
</a>
</g>
</g>
<!-- Node1&#45;&gt;Node3 -->
<g id="edge2_Node000001_Node000003" class="edge">
<title>Node1&#45;&gt;Node3</title>
<g id="a_edge2_Node000001_Node000003"><a xlink:title=" ">
<path fill="none" stroke="#63b8ff" d="M323.93,-174.27C311.36,-170.87 298.3,-167.34 286.08,-164.03"/>
<polygon fill="#63b8ff" stroke="#63b8ff" points="323.32,-177.73 333.89,-176.96 325.15,-170.97 323.32,-177.73"/>
</a>
</g>
</g>
<!-- Node4 -->
<g id="Node000004" class="node">
<title>Node4</title>
<g id="a_Node000004"><a xlink:href="classps_1_1odbc_1_1OdbcWrapper.html#a643a18c01fc242fd40270e72a37255cd" target="_top" xlink:title="Destroys the OdbcWrapper object and releases resources.">
<polygon fill="white" stroke="#666666" points="129,-149 0,-149 0,-119 129,-119 129,-149"/>
<text text-anchor="start" x="8" y="-137" font-family="Helvetica,sans-Serif" font-size="10.00">ps::odbc::OdbcWrapper</text>
<text text-anchor="middle" x="64.5" y="-126" font-family="Helvetica,sans-Serif" font-size="10.00">::~OdbcWrapper</text>
</a>
</g>
</g>
<!-- Node1&#45;&gt;Node4 -->
<g id="edge14_Node000001_Node000004" class="edge">
<title>Node1&#45;&gt;Node4</title>
<g id="a_edge14_Node000001_Node000004"><a xlink:title=" ">
<path fill="none" stroke="#63b8ff" d="M366.61,-169.78C348.53,-153.87 321.8,-133.78 294,-125 240.24,-108.02 175.82,-112.65 129.1,-120.14"/>
<polygon fill="#63b8ff" stroke="#63b8ff" points="364.52,-172.61 374.28,-176.73 369.22,-167.42 364.52,-172.61"/>
</a>
</g>
</g>
<!-- Node5 -->
<g id="Node000005" class="node">
<title>Node5</title>
<g id="a_Node000005"><a xlink:href="classps_1_1odbc_1_1OdbcWrapper.html#a6d0e88fb0e3b1b05a5b5aa8d2f1c2e10" target="_top" xlink:title="Executes a SQL query that retrieves data.">
<polygon fill="white" stroke="#666666" points="129,-318 0,-318 0,-288 129,-288 129,-318"/>
<text text-anchor="start" x="8" y="-306" font-family="Helvetica,sans-Serif" font-size="10.00">ps::odbc::OdbcWrapper</text>
<text text-anchor="middle" x="64.5" y="-295" font-family="Helvetica,sans-Serif" font-size="10.00">::executeQuery</text>
</a>
</g>
</g>
<!-- Node1&#45;&gt;Node5 -->
<g id="edge4_Node000001_Node000005" class="edge">
<title>Node1&#45;&gt;Node5</title>
<g id="a_edge4_Node000001_Node000005"><a xlink:title=" ">
<path fill="none" stroke="#63b8ff" d="M375.82,-216.06C359.87,-241.45 330.91,-280.09 294,-297 242.23,-320.71 176.7,-319.73 129.1,-314.28"/>
<polygon fill="#63b8ff" stroke="#63b8ff" points="378.9,-217.73 381.1,-207.37 372.92,-214.1 378.9,-217.73"/>
</a>
</g>
</g>
<!-- Node6 -->
<g id="Node000006" class="node">
<title>Node6</title>
<g id="a_Node000006"><a xlink:href="classps_1_1odbc_1_1OdbcWrapper.html#a8b4e97a760d757c988dccbc10ab707c9" target="_top" xlink:title="Executes a SQL query that modifies data.">
<polygon fill="white" stroke="#666666" points="129,-268 0,-268 0,-238 129,-238 129,-268"/>
<text text-anchor="start" x="8" y="-256" font-family="Helvetica,sans-Serif" font-size="10.00">ps::odbc::OdbcWrapper</text>
<text text-anchor="middle" x="64.5" y="-245" font-family="Helvetica,sans-Serif" font-size="10.00">::executeUpdate</text>
</a>
</g>
</g>
<!-- Node1&#45;&gt;Node6 -->
<g id="edge5_Node000001_Node000006" class="edge">
<title>Node1&#45;&gt;Node6</title>
<g id="a_edge5_Node000001_Node000006"><a xlink:title=" ">
<path fill="none" stroke="#63b8ff" d="M320.05,-205.09C311.28,-206.74 302.43,-208.41 294,-210 238.26,-220.5 174.88,-232.42 129.03,-241.05"/>
<polygon fill="#63b8ff" stroke="#63b8ff" points="320.72,-208.53 329.9,-203.24 319.42,-201.65 320.72,-208.53"/>
</a>
</g>
</g>
<!-- Node7 -->
<g id="Node000007" class="node">
<title>Node7</title>
<g id="a_Node000007"><a xlink:href="classps_1_1odbc_1_1OdbcWrapper.html#af592c8423bfa2bf18f1ad2bc3d1afee8" target="_top" xlink:title="Fetches the results of the last executed query.">
<polygon fill="white" stroke="#666666" points="294,-78 165,-78 165,-48 294,-48 294,-78"/>
<text text-anchor="start" x="173" y="-66" font-family="Helvetica,sans-Serif" font-size="10.00">ps::odbc::OdbcWrapper</text>
<text text-anchor="middle" x="229.5" y="-55" font-family="Helvetica,sans-Serif" font-size="10.00">::fetchResults</text>
</a>
</g>
</g>
<!-- Node1&#45;&gt;Node7 -->
<g id="edge6_Node000001_Node000007" class="edge">
<title>Node1&#45;&gt;Node7</title>
<g id="a_edge6_Node000001_Node000007"><a xlink:title=" ">
<path fill="none" stroke="#63b8ff" d="M371.76,-168.86C353.98,-146.86 324.87,-113.97 294,-92 286.59,-86.73 278.08,-82.06 269.74,-78.09"/>
<polygon fill="#63b8ff" stroke="#63b8ff" points="369.04,-171.06 378,-176.71 374.52,-166.7 369.04,-171.06"/>
</a>
</g>
</g>
<!-- Node8 -->
<g id="Node000008" class="node">
<title>Node8</title>
<g id="a_Node000008"><a xlink:href="classps_1_1odbc_1_1OdbcWrapper.html#a9f53cef3f614721897e0ce7277b05643" target="_top" xlink:title="Handles ODBC errors by retrieving diagnostic information.">
<polygon fill="white" stroke="#666666" points="294,-288 165,-288 165,-258 294,-258 294,-288"/>
<text text-anchor="start" x="173" y="-276" font-family="Helvetica,sans-Serif" font-size="10.00">ps::odbc::OdbcWrapper</text>
<text text-anchor="middle" x="229.5" y="-265" font-family="Helvetica,sans-Serif" font-size="10.00">::handleError</text>
</a>
</g>
</g>
<!-- Node1&#45;&gt;Node8 -->
<g id="edge7_Node000001_Node000008" class="edge">
<title>Node1&#45;&gt;Node8</title>
<g id="a_edge7_Node000001_Node000008"><a xlink:title=" ">
<path fill="none" stroke="#63b8ff" d="M354.09,-212.05C336.22,-221.97 314.13,-233.94 294,-244 284.57,-248.71 274.21,-253.57 264.65,-257.93"/>
<polygon fill="#63b8ff" stroke="#63b8ff" points="355.98,-215 363.01,-207.08 352.57,-208.89 355.98,-215"/>
</a>
</g>
</g>
<!-- Node9 -->
<g id="Node000009" class="node">
<title>Node9</title>
<g id="a_Node000009"><a xlink:href="classps_1_1odbc_1_1OdbcWrapper.html#a9023d4f66c1c4b6bc00041ca1970f387" target="_top" xlink:title="Initializes the ODBC environment and allocates necessary handles.">
<polygon fill="white" stroke="#666666" points="129,-216 0,-216 0,-186 129,-186 129,-216"/>
<text text-anchor="start" x="8" y="-204" font-family="Helvetica,sans-Serif" font-size="10.00">ps::odbc::OdbcWrapper</text>
<text text-anchor="middle" x="64.5" y="-193" font-family="Helvetica,sans-Serif" font-size="10.00">::initialize</text>
</a>
</g>
</g>
<!-- Node1&#45;&gt;Node9 -->
<g id="edge12_Node000001_Node000009" class="edge">
<title>Node1&#45;&gt;Node9</title>
<g id="a_edge12_Node000001_Node000009"><a xlink:title=" ">
<path fill="none" stroke="#63b8ff" d="M319.4,-193.95C262.82,-195.52 183.89,-197.71 129.11,-199.23"/>
<polygon fill="#63b8ff" stroke="#63b8ff" points="319.8,-197.44 329.7,-193.66 319.6,-190.44 319.8,-197.44"/>
</a>
</g>
</g>
<!-- Node10 -->
<g id="Node000010" class="node">
<title>Node10</title>
<g id="a_Node000010"><a xlink:href="classps_1_1odbc_1_1OdbcWrapper.html#a1921be1257874728a45841bb95849071" target="_top" xlink:title="Constructs an OdbcWrapper object.">
<polygon fill="white" stroke="#666666" points="294,-30 165,-30 165,0 294,0 294,-30"/>
<text text-anchor="start" x="173" y="-18" font-family="Helvetica,sans-Serif" font-size="10.00">ps::odbc::OdbcWrapper</text>
<text text-anchor="middle" x="229.5" y="-7" font-family="Helvetica,sans-Serif" font-size="10.00">::OdbcWrapper</text>
</a>
</g>
</g>
<!-- Node1&#45;&gt;Node10 -->
<g id="edge13_Node000001_Node000010" class="edge">
<title>Node1&#45;&gt;Node10</title>
<g id="a_edge13_Node000001_Node000010"><a xlink:title=" ">
<path fill="none" stroke="#63b8ff" d="M380,-167.17C366.01,-133.65 336.78,-74.1 294,-39 289.81,-35.56 285.07,-32.58 280.12,-30.01"/>
<polygon fill="#63b8ff" stroke="#63b8ff" points="376.86,-168.72 383.86,-176.68 383.35,-166.09 376.86,-168.72"/>
</a>
</g>
</g>
<!-- Node3&#45;&gt;Node4 -->
<g id="edge3_Node000003_Node000004" class="edge">
<title>Node3&#45;&gt;Node4</title>
<g id="a_edge3_Node000003_Node000004"><a xlink:title=" ">
<path fill="none" stroke="#63b8ff" d="M154.31,-142.17C145.86,-141.39 137.3,-140.61 129,-139.84"/>
<polygon fill="#63b8ff" stroke="#63b8ff" points="154.27,-145.68 164.55,-143.11 154.91,-138.71 154.27,-145.68"/>
</a>
</g>
</g>
<!-- Node8&#45;&gt;Node2 -->
<g id="edge8_Node000008_Node000002" class="edge">
<title>Node8&#45;&gt;Node2</title>
<g id="a_edge8_Node000008_Node000002"><a xlink:title=" ">
<path fill="none" stroke="#63b8ff" d="M193.92,-293.12C175.03,-303.77 151.05,-316.73 129,-327 121.59,-330.45 113.56,-333.86 105.79,-337"/>
<polygon fill="#63b8ff" stroke="#63b8ff" points="195.79,-296.08 202.76,-288.1 192.34,-289.99 195.79,-296.08"/>
</a>
</g>
</g>
<!-- Node8&#45;&gt;Node5 -->
<g id="edge9_Node000008_Node000005" class="edge">
<title>Node8&#45;&gt;Node5</title>
<g id="a_edge9_Node000008_Node000005"><a xlink:title=" ">
<path fill="none" stroke="#63b8ff" d="M154.59,-286.6C146.05,-288.18 137.39,-289.77 129,-291.31"/>
<polygon fill="#63b8ff" stroke="#63b8ff" points="155.34,-290.02 164.55,-284.77 154.08,-283.14 155.34,-290.02"/>
</a>
</g>
</g>
<!-- Node8&#45;&gt;Node6 -->
<g id="edge10_Node000008_Node000006" class="edge">
<title>Node8&#45;&gt;Node6</title>
<g id="a_edge10_Node000008_Node000006"><a xlink:title=" ">
<path fill="none" stroke="#63b8ff" d="M154.59,-263.93C146.05,-262.88 137.39,-261.82 129,-260.79"/>
<polygon fill="#63b8ff" stroke="#63b8ff" points="154.19,-267.41 164.55,-265.15 155.05,-260.46 154.19,-267.41"/>
</a>
</g>
</g>
<!-- Node8&#45;&gt;Node9 -->
<g id="edge11_Node000008_Node000009" class="edge">
<title>Node8&#45;&gt;Node9</title>
<g id="a_edge11_Node000008_Node000009"><a xlink:title=" ">
<path fill="none" stroke="#63b8ff" d="M185.07,-253.78C167.64,-246.07 147.37,-237.11 129,-229 119.52,-224.81 109.24,-220.28 99.78,-216.11"/>
<polygon fill="#63b8ff" stroke="#63b8ff" points="183.87,-257.08 194.43,-257.92 186.7,-250.68 183.87,-257.08"/>
</a>
</g>
</g>
</g>
</svg>
