<?xml version="1.0" encoding="UTF-8" standalone="no"?>
<!DOCTYPE svg PUBLIC "-//W3C//DTD SVG 1.1//EN"
 "http://www.w3.org/Graphics/SVG/1.1/DTD/svg11.dtd">
<!-- Generated by graphviz version 2.43.0 (0)
 -->
<!-- Title: ps::odbc::OdbcLogger::logError Pages: 1 -->
<svg width="459pt" height="182pt"
 viewBox="0.00 0.00 459.00 182.00" xmlns="http://www.w3.org/2000/svg" xmlns:xlink="http://www.w3.org/1999/xlink">
<g id="graph0" class="graph" transform="scale(1 1) rotate(0) translate(4 178)">
<title>ps::odbc::OdbcLogger::logError</title>
<!-- Node1 -->
<g id="Node000001" class="node">
<title>Node1</title>
<g id="a_Node000001"><a xlink:title="Logs an error message.">
<polygon fill="#999999" stroke="#666666" points="451,-102 330,-102 330,-72 451,-72 451,-102"/>
<text text-anchor="start" x="338" y="-90" font-family="Helvetica,sans-Serif" font-size="10.00">ps::odbc::OdbcLogger</text>
<text text-anchor="middle" x="390.5" y="-79" font-family="Helvetica,sans-Serif" font-size="10.00">::logError</text>
</a>
</g>
</g>
<!-- Node2 -->
<g id="Node000002" class="node">
<title>Node2</title>
<g id="a_Node000002"><a xlink:href="classps_1_1odbc_1_1OdbcWrapper.html#a9f53cef3f614721897e0ce7277b05643" target="_top" xlink:title="Handles ODBC errors by retrieving diagnostic information.">
<polygon fill="white" stroke="#666666" points="294,-102 165,-102 165,-72 294,-72 294,-102"/>
<text text-anchor="start" x="173" y="-90" font-family="Helvetica,sans-Serif" font-size="10.00">ps::odbc::OdbcWrapper</text>
<text text-anchor="middle" x="229.5" y="-79" font-family="Helvetica,sans-Serif" font-size="10.00">::handleError</text>
</a>
</g>
</g>
<!-- Node1&#45;&gt;Node2 -->
<g id="edge1_Node000001_Node000002" class="edge">
<title>Node1&#45;&gt;Node2</title>
<g id="a_edge1_Node000001_Node000002"><a xlink:title=" ">
<path fill="none" stroke="#63b8ff" d="M319.63,-87C311.18,-87 302.57,-87 294.22,-87"/>
<polygon fill="#63b8ff" stroke="#63b8ff" points="319.84,-90.5 329.84,-87 319.84,-83.5 319.84,-90.5"/>
</a>
</g>
</g>
<!-- Node3 -->
<g id="Node000003" class="node">
<title>Node3</title>
<g id="a_Node000003"><a xlink:href="classps_1_1odbc_1_1OdbcWrapper.html#a8c00d96fa10167139bc614134c891883" target="_top" xlink:title="Establishes a connection to the database.">
<polygon fill="white" stroke="#666666" points="129,-174 0,-174 0,-144 129,-144 129,-174"/>
<text text-anchor="start" x="8" y="-162" font-family="Helvetica,sans-Serif" font-size="10.00">ps::odbc::OdbcWrapper</text>
<text text-anchor="middle" x="64.5" y="-151" font-family="Helvetica,sans-Serif" font-size="10.00">::connect</text>
</a>
</g>
</g>
<!-- Node2&#45;&gt;Node3 -->
<g id="edge2_Node000002_Node000003" class="edge">
<title>Node2&#45;&gt;Node3</title>
<g id="a_edge2_Node000002_Node000003"><a xlink:title=" ">
<path fill="none" stroke="#63b8ff" d="M189.62,-106.74C171.39,-115.74 149.26,-126.3 129,-135 121.96,-138.02 114.4,-141.06 107.04,-143.9"/>
<polygon fill="#63b8ff" stroke="#63b8ff" points="191.38,-109.77 198.77,-102.19 188.26,-103.51 191.38,-109.77"/>
</a>
</g>
</g>
<!-- Node4 -->
<g id="Node000004" class="node">
<title>Node4</title>
<g id="a_Node000004"><a xlink:href="classps_1_1odbc_1_1OdbcWrapper.html#a6d0e88fb0e3b1b05a5b5aa8d2f1c2e10" target="_top" xlink:title="Executes a SQL query that retrieves data.">
<polygon fill="white" stroke="#666666" points="129,-126 0,-126 0,-96 129,-96 129,-126"/>
<text text-anchor="start" x="8" y="-114" font-family="Helvetica,sans-Serif" font-size="10.00">ps::odbc::OdbcWrapper</text>
<text text-anchor="middle" x="64.5" y="-103" font-family="Helvetica,sans-Serif" font-size="10.00">::executeQuery</text>
</a>
</g>
</g>
<!-- Node2&#45;&gt;Node4 -->
<g id="edge3_Node000002_Node000004" class="edge">
<title>Node2&#45;&gt;Node4</title>
<g id="a_edge3_Node000002_Node000004"><a xlink:title=" ">
<path fill="none" stroke="#63b8ff" d="M154.59,-97.88C146.05,-99.14 137.39,-100.41 129,-101.65"/>
<polygon fill="#63b8ff" stroke="#63b8ff" points="155.16,-101.34 164.55,-96.42 154.14,-94.41 155.16,-101.34"/>
</a>
</g>
</g>
<!-- Node5 -->
<g id="Node000005" class="node">
<title>Node5</title>
<g id="a_Node000005"><a xlink:href="classps_1_1odbc_1_1OdbcWrapper.html#a8b4e97a760d757c988dccbc10ab707c9" target="_top" xlink:title="Executes a SQL query that modifies data.">
<polygon fill="white" stroke="#666666" points="129,-78 0,-78 0,-48 129,-48 129,-78"/>
<text text-anchor="start" x="8" y="-66" font-family="Helvetica,sans-Serif" font-size="10.00">ps::odbc::OdbcWrapper</text>
<text text-anchor="middle" x="64.5" y="-55" font-family="Helvetica,sans-Serif" font-size="10.00">::executeUpdate</text>
</a>
</g>
</g>
<!-- Node2&#45;&gt;Node5 -->
<g id="edge4_Node000002_Node000005" class="edge">
<title>Node2&#45;&gt;Node5</title>
<g id="a_edge4_Node000002_Node000005"><a xlink:title=" ">
<path fill="none" stroke="#63b8ff" d="M154.59,-76.12C146.05,-74.86 137.39,-73.59 129,-72.35"/>
<polygon fill="#63b8ff" stroke="#63b8ff" points="154.14,-79.59 164.55,-77.58 155.16,-72.66 154.14,-79.59"/>
</a>
</g>
</g>
<!-- Node6 -->
<g id="Node000006" class="node">
<title>Node6</title>
<g id="a_Node000006"><a xlink:href="classps_1_1odbc_1_1OdbcWrapper.html#a9023d4f66c1c4b6bc00041ca1970f387" target="_top" xlink:title="Initializes the ODBC environment and allocates necessary handles.">
<polygon fill="white" stroke="#666666" points="129,-30 0,-30 0,0 129,0 129,-30"/>
<text text-anchor="start" x="8" y="-18" font-family="Helvetica,sans-Serif" font-size="10.00">ps::odbc::OdbcWrapper</text>
<text text-anchor="middle" x="64.5" y="-7" font-family="Helvetica,sans-Serif" font-size="10.00">::initialize</text>
</a>
</g>
</g>
<!-- Node2&#45;&gt;Node6 -->
<g id="edge5_Node000002_Node000006" class="edge">
<title>Node2&#45;&gt;Node6</title>
<g id="a_edge5_Node000002_Node000006"><a xlink:title=" ">
<path fill="none" stroke="#63b8ff" d="M189.62,-67.26C171.39,-58.26 149.26,-47.7 129,-39 121.96,-35.98 114.4,-32.94 107.04,-30.1"/>
<polygon fill="#63b8ff" stroke="#63b8ff" points="188.26,-70.49 198.77,-71.81 191.38,-64.23 188.26,-70.49"/>
</a>
</g>
</g>
</g>
</svg>
