<?xml version="1.0" encoding="UTF-8" standalone="no"?>
<!DOCTYPE svg PUBLIC "-//W3C//DTD SVG 1.1//EN"
 "http://www.w3.org/Graphics/SVG/1.1/DTD/svg11.dtd">
<!-- Generated by graphviz version 2.43.0 (0)
 -->
<!-- Title: ps::odbc::OdbcWrapper::handleError Pages: 1 -->
<svg width="294pt" height="86pt"
 viewBox="0.00 0.00 294.00 86.00" xmlns="http://www.w3.org/2000/svg" xmlns:xlink="http://www.w3.org/1999/xlink">
<g id="graph0" class="graph" transform="scale(1 1) rotate(0) translate(4 82)">
<title>ps::odbc::OdbcWrapper::handleError</title>
<!-- Node1 -->
<g id="Node000001" class="node">
<title>Node1</title>
<g id="a_Node000001"><a xlink:title="Handles ODBC errors by retrieving diagnostic information.">
<polygon fill="#999999" stroke="#666666" points="129,-54 0,-54 0,-24 129,-24 129,-54"/>
<text text-anchor="start" x="8" y="-42" font-family="Helvetica,sans-Serif" font-size="10.00">ps::odbc::OdbcWrapper</text>
<text text-anchor="middle" x="64.5" y="-31" font-family="Helvetica,sans-Serif" font-size="10.00">::handleError</text>
</a>
</g>
</g>
<!-- Node2 -->
<g id="Node000002" class="node">
<title>Node2</title>
<g id="a_Node000002"><a xlink:href="classps_1_1odbc_1_1OdbcLogger.html#aefc539867ce99099bad012daeabe3334" target="_top" xlink:title="Logs an error message.">
<polygon fill="white" stroke="#666666" points="286,-78 165,-78 165,-48 286,-48 286,-78"/>
<text text-anchor="start" x="173" y="-66" font-family="Helvetica,sans-Serif" font-size="10.00">ps::odbc::OdbcLogger</text>
<text text-anchor="middle" x="225.5" y="-55" font-family="Helvetica,sans-Serif" font-size="10.00">::logError</text>
</a>
</g>
</g>
<!-- Node1&#45;&gt;Node2 -->
<g id="edge1_Node000001_Node000002" class="edge">
<title>Node1&#45;&gt;Node2</title>
<g id="a_edge1_Node000001_Node000002"><a xlink:title=" ">
<path fill="none" stroke="#63b8ff" d="M129.26,-48.62C137.7,-49.9 146.39,-51.21 154.93,-52.5"/>
<polygon fill="#63b8ff" stroke="#63b8ff" points="154.45,-55.97 164.86,-54 155.49,-49.04 154.45,-55.97"/>
</a>
</g>
</g>
<!-- Node3 -->
<g id="Node000003" class="node">
<title>Node3</title>
<g id="a_Node000003"><a xlink:href="classps_1_1odbc_1_1OdbcLogger.html#a1793e3ea2be49de35869d8e33c56ed3a" target="_top" xlink:title="Logs an informational message.">
<polygon fill="white" stroke="#666666" points="286,-30 165,-30 165,0 286,0 286,-30"/>
<text text-anchor="start" x="173" y="-18" font-family="Helvetica,sans-Serif" font-size="10.00">ps::odbc::OdbcLogger</text>
<text text-anchor="middle" x="225.5" y="-7" font-family="Helvetica,sans-Serif" font-size="10.00">::logInfo</text>
</a>
</g>
</g>
<!-- Node1&#45;&gt;Node3 -->
<g id="edge2_Node000001_Node000003" class="edge">
<title>Node1&#45;&gt;Node3</title>
<g id="a_edge2_Node000001_Node000003"><a xlink:title=" ">
<path fill="none" stroke="#63b8ff" d="M129.26,-29.38C137.7,-28.1 146.39,-26.79 154.93,-25.5"/>
<polygon fill="#63b8ff" stroke="#63b8ff" points="155.49,-28.96 164.86,-24 154.45,-22.03 155.49,-28.96"/>
</a>
</g>
</g>
</g>
</svg>
