<?xml version="1.0" encoding="UTF-8" standalone="no"?>
<!DOCTYPE svg PUBLIC "-//W3C//DTD SVG 1.1//EN"
 "http://www.w3.org/Graphics/SVG/1.1/DTD/svg11.dtd">
<!-- Generated by graphviz version 2.43.0 (0)
 -->
<!-- Title: ps::odbc::OdbcWrapper::~OdbcWrapper Pages: 1 -->
<svg width="459pt" height="60pt"
 viewBox="0.00 0.00 459.00 60.00" xmlns="http://www.w3.org/2000/svg" xmlns:xlink="http://www.w3.org/1999/xlink">
<g id="graph0" class="graph" transform="scale(1 1) rotate(0) translate(4 56)">
<title>ps::odbc::OdbcWrapper::~OdbcWrapper</title>
<!-- Node1 -->
<g id="Node000001" class="node">
<title>Node1</title>
<g id="a_Node000001"><a xlink:title="Destroys the OdbcWrapper object and releases resources.">
<polygon fill="#999999" stroke="#666666" points="129,-30 0,-30 0,0 129,0 129,-30"/>
<text text-anchor="start" x="8" y="-18" font-family="Helvetica,sans-Serif" font-size="10.00">ps::odbc::OdbcWrapper</text>
<text text-anchor="middle" x="64.5" y="-7" font-family="Helvetica,sans-Serif" font-size="10.00">::~OdbcWrapper</text>
</a>
</g>
</g>
<!-- Node2 -->
<g id="Node000002" class="node">
<title>Node2</title>
<g id="a_Node000002"><a xlink:href="classps_1_1odbc_1_1OdbcWrapper.html#a775ee4634d9a0d13d74a2d1032de313a" target="_top" xlink:title="Disconnects from the database and releases the connection handle.">
<polygon fill="white" stroke="#666666" points="294,-52 165,-52 165,-22 294,-22 294,-52"/>
<text text-anchor="start" x="173" y="-40" font-family="Helvetica,sans-Serif" font-size="10.00">ps::odbc::OdbcWrapper</text>
<text text-anchor="middle" x="229.5" y="-29" font-family="Helvetica,sans-Serif" font-size="10.00">::disconnect</text>
</a>
</g>
</g>
<!-- Node1&#45;&gt;Node2 -->
<g id="edge1_Node000001_Node000002" class="edge">
<title>Node1&#45;&gt;Node2</title>
<g id="a_edge1_Node000001_Node000002"><a xlink:title=" ">
<path fill="none" stroke="#63b8ff" d="M129.45,-23.63C137.85,-24.77 146.51,-25.93 155.05,-27.09"/>
<polygon fill="#63b8ff" stroke="#63b8ff" points="154.62,-30.56 165,-28.43 155.56,-23.62 154.62,-30.56"/>
</a>
</g>
</g>
<!-- Node3 -->
<g id="Node000003" class="node">
<title>Node3</title>
<g id="a_Node000003"><a xlink:href="classps_1_1odbc_1_1OdbcLogger.html#a1793e3ea2be49de35869d8e33c56ed3a" target="_top" xlink:title="Logs an informational message.">
<polygon fill="white" stroke="#666666" points="451,-30 330,-30 330,0 451,0 451,-30"/>
<text text-anchor="start" x="338" y="-18" font-family="Helvetica,sans-Serif" font-size="10.00">ps::odbc::OdbcLogger</text>
<text text-anchor="middle" x="390.5" y="-7" font-family="Helvetica,sans-Serif" font-size="10.00">::logInfo</text>
</a>
</g>
</g>
<!-- Node1&#45;&gt;Node3 -->
<g id="edge3_Node000001_Node000003" class="edge">
<title>Node1&#45;&gt;Node3</title>
<g id="a_edge3_Node000001_Node000003"><a xlink:title=" ">
<path fill="none" stroke="#63b8ff" d="M129.19,-13.53C141.09,-13.31 153.42,-13.12 165,-13 222.33,-12.42 236.67,-12.4 294,-13 302.34,-13.09 311.1,-13.22 319.77,-13.37"/>
<polygon fill="#63b8ff" stroke="#63b8ff" points="319.84,-16.87 329.9,-13.56 319.97,-9.87 319.84,-16.87"/>
</a>
</g>
</g>
<!-- Node2&#45;&gt;Node3 -->
<g id="edge2_Node000002_Node000003" class="edge">
<title>Node2&#45;&gt;Node3</title>
<g id="a_edge2_Node000002_Node000003"><a xlink:title=" ">
<path fill="none" stroke="#63b8ff" d="M294.26,-28.18C302.7,-27.01 311.39,-25.81 319.93,-24.63"/>
<polygon fill="#63b8ff" stroke="#63b8ff" points="320.43,-28.09 329.86,-23.25 319.47,-21.16 320.43,-28.09"/>
</a>
</g>
</g>
</g>
</svg>
