<?xml version="1.0" encoding="UTF-8" standalone="no"?>
<!DOCTYPE svg PUBLIC "-//W3C//DTD SVG 1.1//EN"
 "http://www.w3.org/Graphics/SVG/1.1/DTD/svg11.dtd">
<!-- Generated by graphviz version 2.43.0 (0)
 -->
<!-- Title: /media/psanodiya/workspace/cpp/cpp&#45;odbc&#45;wrapper/src/odbcwrapper.cpp Pages: 1 -->
<svg width="732pt" height="225pt"
 viewBox="0.00 0.00 731.50 225.00" xmlns="http://www.w3.org/2000/svg" xmlns:xlink="http://www.w3.org/1999/xlink">
<g id="graph0" class="graph" transform="scale(1 1) rotate(0) translate(4 221)">
<title>/media/psanodiya/workspace/cpp/cpp&#45;odbc&#45;wrapper/src/odbcwrapper.cpp</title>
<!-- Node1 -->
<g id="Node000001" class="node">
<title>Node1</title>
<g id="a_Node000001"><a xlink:title=" ">
<polygon fill="#999999" stroke="#666666" points="472.5,-217 313.5,-217 313.5,-176 472.5,-176 472.5,-217"/>
<text text-anchor="start" x="321.5" y="-205" font-family="Helvetica,sans-Serif" font-size="10.00">/media/psanodiya/workspace</text>
<text text-anchor="start" x="321.5" y="-194" font-family="Helvetica,sans-Serif" font-size="10.00">/cpp/cpp&#45;odbc&#45;wrapper/src</text>
<text text-anchor="middle" x="393" y="-183" font-family="Helvetica,sans-Serif" font-size="10.00">/odbcwrapper.cpp</text>
</a>
</g>
</g>
<!-- Node2 -->
<g id="Node000002" class="node">
<title>Node2</title>
<g id="a_Node000002"><a xlink:href="odbcexecutor_8h.html" target="_top" xlink:title=" ">
<polygon fill="white" stroke="#666666" points="139,-140 5,-140 5,-121 139,-121 139,-140"/>
<text text-anchor="middle" x="72" y="-128" font-family="Helvetica,sans-Serif" font-size="10.00">odbccpp/odbcexecutor.h</text>
</a>
</g>
</g>
<!-- Node1&#45;&gt;Node2 -->
<g id="edge1_Node000001_Node000002" class="edge">
<title>Node1&#45;&gt;Node2</title>
<g id="a_edge1_Node000001_Node000002"><a xlink:title=" ">
<path fill="none" stroke="#63b8ff" d="M313.24,-179.6C254.4,-167.87 175.99,-152.23 124.77,-142.02"/>
<polygon fill="#63b8ff" stroke="#63b8ff" points="125.39,-138.58 114.9,-140.05 124.03,-145.44 125.39,-138.58"/>
</a>
</g>
</g>
<!-- Node7 -->
<g id="Node000007" class="node">
<title>Node7</title>
<g id="a_Node000007"><a xlink:href="odbcwrapper_8h.html" target="_top" xlink:title=" ">
<polygon fill="white" stroke="#666666" points="288.5,-140 157.5,-140 157.5,-121 288.5,-121 288.5,-140"/>
<text text-anchor="middle" x="223" y="-128" font-family="Helvetica,sans-Serif" font-size="10.00">odbccpp/odbcwrapper.h</text>
</a>
</g>
</g>
<!-- Node1&#45;&gt;Node7 -->
<g id="edge6_Node000001_Node000007" class="edge">
<title>Node1&#45;&gt;Node7</title>
<g id="a_edge6_Node000001_Node000007"><a xlink:title=" ">
<path fill="none" stroke="#63b8ff" d="M341.07,-175.95C313.09,-165.42 279.45,-152.75 255.25,-143.64"/>
<polygon fill="#63b8ff" stroke="#63b8ff" points="256.41,-140.34 245.82,-140.09 253.95,-146.89 256.41,-140.34"/>
</a>
</g>
</g>
<!-- Node10 -->
<g id="Node000010" class="node">
<title>Node10</title>
<g id="a_Node000010"><a xlink:href="odbclogger_8h.html" target="_top" xlink:title=" ">
<polygon fill="white" stroke="#666666" points="387.5,-140 308.5,-140 308.5,-121 387.5,-121 387.5,-140"/>
<text text-anchor="middle" x="348" y="-128" font-family="Helvetica,sans-Serif" font-size="10.00">odbclogger.h</text>
</a>
</g>
</g>
<!-- Node1&#45;&gt;Node10 -->
<g id="edge11_Node000001_Node000010" class="edge">
<title>Node1&#45;&gt;Node10</title>
<g id="a_edge11_Node000001_Node000010"><a xlink:title=" ">
<path fill="none" stroke="#63b8ff" d="M379.25,-175.95C373.1,-167.2 365.92,-156.99 359.99,-148.56"/>
<polygon fill="#63b8ff" stroke="#63b8ff" points="362.77,-146.43 354.16,-140.26 357.05,-150.45 362.77,-146.43"/>
</a>
</g>
</g>
<!-- Node14 -->
<g id="Node000014" class="node">
<title>Node14</title>
<g id="a_Node000014"><a xlink:title=" ">
<polygon fill="#e0e0e0" stroke="#999999" points="470.5,-140 405.5,-140 405.5,-121 470.5,-121 470.5,-140"/>
<text text-anchor="middle" x="438" y="-128" font-family="Helvetica,sans-Serif" font-size="10.00">stdexcept</text>
</a>
</g>
</g>
<!-- Node1&#45;&gt;Node14 -->
<g id="edge17_Node000001_Node000014" class="edge">
<title>Node1&#45;&gt;Node14</title>
<g id="a_edge17_Node000001_Node000014"><a xlink:title=" ">
<path fill="none" stroke="#63b8ff" d="M406.75,-175.95C412.9,-167.2 420.08,-156.99 426.01,-148.56"/>
<polygon fill="#63b8ff" stroke="#63b8ff" points="428.95,-150.45 431.84,-140.26 423.23,-146.43 428.95,-150.45"/>
</a>
</g>
</g>
<!-- Node15 -->
<g id="Node000015" class="node">
<title>Node15</title>
<g id="a_Node000015"><a xlink:title=" ">
<polygon fill="#e0e0e0" stroke="#999999" points="543.5,-140 488.5,-140 488.5,-121 543.5,-121 543.5,-140"/>
<text text-anchor="middle" x="516" y="-128" font-family="Helvetica,sans-Serif" font-size="10.00">codecvt</text>
</a>
</g>
</g>
<!-- Node1&#45;&gt;Node15 -->
<g id="edge18_Node000001_Node000015" class="edge">
<title>Node1&#45;&gt;Node15</title>
<g id="a_edge18_Node000001_Node000015"><a xlink:title=" ">
<path fill="none" stroke="#63b8ff" d="M430.57,-175.95C450.01,-165.84 473.21,-153.76 490.53,-144.75"/>
<polygon fill="#63b8ff" stroke="#63b8ff" points="492.23,-147.81 499.49,-140.09 489,-141.6 492.23,-147.81"/>
</a>
</g>
</g>
<!-- Node16 -->
<g id="Node000016" class="node">
<title>Node16</title>
<g id="a_Node000016"><a xlink:title=" ">
<polygon fill="#e0e0e0" stroke="#999999" points="608,-140 562,-140 562,-121 608,-121 608,-140"/>
<text text-anchor="middle" x="585" y="-128" font-family="Helvetica,sans-Serif" font-size="10.00">locale</text>
</a>
</g>
</g>
<!-- Node1&#45;&gt;Node16 -->
<g id="edge19_Node000001_Node000016" class="edge">
<title>Node1&#45;&gt;Node16</title>
<g id="a_edge19_Node000001_Node000016"><a xlink:title=" ">
<path fill="none" stroke="#63b8ff" d="M451.65,-175.95C484.65,-164.95 524.63,-151.62 552.16,-142.45"/>
<polygon fill="#63b8ff" stroke="#63b8ff" points="553.32,-145.75 561.7,-139.27 551.1,-139.11 553.32,-145.75"/>
</a>
</g>
</g>
<!-- Node3 -->
<g id="Node000003" class="node">
<title>Node3</title>
<g id="a_Node000003"><a xlink:href="odbcinterface_8h.html" target="_top" xlink:title=" ">
<polygon fill="white" stroke="#666666" points="140,-79.5 4,-79.5 4,-60.5 140,-60.5 140,-79.5"/>
<text text-anchor="middle" x="72" y="-67.5" font-family="Helvetica,sans-Serif" font-size="10.00">odbccpp/odbcinterface.h</text>
</a>
</g>
</g>
<!-- Node2&#45;&gt;Node3 -->
<g id="edge2_Node000002_Node000003" class="edge">
<title>Node2&#45;&gt;Node3</title>
<g id="a_edge2_Node000002_Node000003"><a xlink:title=" ">
<path fill="none" stroke="#63b8ff" d="M72,-120.87C72,-112.75 72,-100.31 72,-89.89"/>
<polygon fill="#63b8ff" stroke="#63b8ff" points="75.5,-89.67 72,-79.67 68.5,-89.67 75.5,-89.67"/>
</a>
</g>
</g>
<!-- Node4 -->
<g id="Node000004" class="node">
<title>Node4</title>
<g id="a_Node000004"><a xlink:title=" ">
<polygon fill="#e0e0e0" stroke="#999999" points="40,-19 0,-19 0,0 40,0 40,-19"/>
<text text-anchor="middle" x="20" y="-7" font-family="Helvetica,sans-Serif" font-size="10.00">sql.h</text>
</a>
</g>
</g>
<!-- Node3&#45;&gt;Node4 -->
<g id="edge3_Node000003_Node000004" class="edge">
<title>Node3&#45;&gt;Node4</title>
<g id="a_edge3_Node000003_Node000004"><a xlink:title=" ">
<path fill="none" stroke="#63b8ff" d="M64.33,-60.37C56.49,-51.55 44.14,-37.66 34.46,-26.77"/>
<polygon fill="#63b8ff" stroke="#63b8ff" points="36.96,-24.32 27.7,-19.17 31.73,-28.97 36.96,-24.32"/>
</a>
</g>
</g>
<!-- Node5 -->
<g id="Node000005" class="node">
<title>Node5</title>
<g id="a_Node000005"><a xlink:title=" ">
<polygon fill="#e0e0e0" stroke="#999999" points="114,-19 58,-19 58,0 114,0 114,-19"/>
<text text-anchor="middle" x="86" y="-7" font-family="Helvetica,sans-Serif" font-size="10.00">sqlext.h</text>
</a>
</g>
</g>
<!-- Node3&#45;&gt;Node5 -->
<g id="edge4_Node000003_Node000005" class="edge">
<title>Node3&#45;&gt;Node5</title>
<g id="a_edge4_Node000003_Node000005"><a xlink:title=" ">
<path fill="none" stroke="#63b8ff" d="M74.07,-60.37C76.03,-52.16 79.05,-39.54 81.56,-29.05"/>
<polygon fill="#63b8ff" stroke="#63b8ff" points="85,-29.71 83.93,-19.17 78.19,-28.08 85,-29.71"/>
</a>
</g>
</g>
<!-- Node6 -->
<g id="Node000006" class="node">
<title>Node6</title>
<g id="a_Node000006"><a xlink:title=" ">
<polygon fill="#e0e0e0" stroke="#999999" points="190,-19 146,-19 146,0 190,0 190,-19"/>
<text text-anchor="middle" x="168" y="-7" font-family="Helvetica,sans-Serif" font-size="10.00">string</text>
</a>
</g>
</g>
<!-- Node3&#45;&gt;Node6 -->
<g id="edge5_Node000003_Node000006" class="edge">
<title>Node3&#45;&gt;Node6</title>
<g id="a_edge5_Node000003_Node000006"><a xlink:title=" ">
<path fill="none" stroke="#63b8ff" d="M86.17,-60.37C101.69,-50.91 126.83,-35.59 145.15,-24.42"/>
<polygon fill="#63b8ff" stroke="#63b8ff" points="147.06,-27.36 153.78,-19.17 143.42,-21.38 147.06,-27.36"/>
</a>
</g>
</g>
<!-- Node7&#45;&gt;Node3 -->
<g id="edge7_Node000007_Node000003" class="edge">
<title>Node7&#45;&gt;Node3</title>
<g id="a_edge7_Node000007_Node000003"><a xlink:title=" ">
<path fill="none" stroke="#63b8ff" d="M201.04,-120.99C175.32,-111.03 132.52,-94.45 103.32,-83.13"/>
<polygon fill="#63b8ff" stroke="#63b8ff" points="104.57,-79.87 93.98,-79.52 102.04,-86.39 104.57,-79.87"/>
</a>
</g>
</g>
<!-- Node7&#45;&gt;Node6 -->
<g id="edge8_Node000007_Node000006" class="edge">
<title>Node7&#45;&gt;Node6</title>
<g id="a_edge8_Node000007_Node000006"><a xlink:title=" ">
<path fill="none" stroke="#63b8ff" d="M213.99,-120.78C205.8,-112.35 193.95,-98.86 187,-85 178.04,-67.14 173.06,-44.7 170.47,-29.14"/>
<polygon fill="#63b8ff" stroke="#63b8ff" points="173.93,-28.56 168.99,-19.19 167,-29.59 173.93,-28.56"/>
</a>
</g>
</g>
<!-- Node8 -->
<g id="Node000008" class="node">
<title>Node8</title>
<g id="a_Node000008"><a xlink:title=" ">
<polygon fill="#e0e0e0" stroke="#999999" points="243.5,-79.5 196.5,-79.5 196.5,-60.5 243.5,-60.5 243.5,-79.5"/>
<text text-anchor="middle" x="220" y="-67.5" font-family="Helvetica,sans-Serif" font-size="10.00">vector</text>
</a>
</g>
</g>
<!-- Node7&#45;&gt;Node8 -->
<g id="edge9_Node000007_Node000008" class="edge">
<title>Node7&#45;&gt;Node8</title>
<g id="a_edge9_Node000007_Node000008"><a xlink:title=" ">
<path fill="none" stroke="#63b8ff" d="M222.56,-120.87C222.14,-112.75 221.5,-100.31 220.97,-89.89"/>
<polygon fill="#63b8ff" stroke="#63b8ff" points="224.45,-89.47 220.44,-79.67 217.46,-89.83 224.45,-89.47"/>
</a>
</g>
</g>
<!-- Node9 -->
<g id="Node000009" class="node">
<title>Node9</title>
<g id="a_Node000009"><a xlink:title=" ">
<polygon fill="#e0e0e0" stroke="#999999" points="320,-79.5 262,-79.5 262,-60.5 320,-60.5 320,-79.5"/>
<text text-anchor="middle" x="291" y="-67.5" font-family="Helvetica,sans-Serif" font-size="10.00">memory</text>
</a>
</g>
</g>
<!-- Node7&#45;&gt;Node9 -->
<g id="edge10_Node000007_Node000009" class="edge">
<title>Node7&#45;&gt;Node9</title>
<g id="a_edge10_Node000007_Node000009"><a xlink:title=" ">
<path fill="none" stroke="#63b8ff" d="M233.03,-120.87C243.58,-111.8 260.39,-97.34 273.19,-86.32"/>
<polygon fill="#63b8ff" stroke="#63b8ff" points="275.63,-88.84 280.93,-79.67 271.06,-83.54 275.63,-88.84"/>
</a>
</g>
</g>
<!-- Node10&#45;&gt;Node6 -->
<g id="edge16_Node000010_Node000006" class="edge">
<title>Node10&#45;&gt;Node6</title>
<g id="a_edge16_Node000010_Node000006"><a xlink:title=" ">
<path fill="none" stroke="#63b8ff" d="M348.4,-120.81C348.62,-105.38 346.75,-73.11 329,-55 295,-20.32 236.59,-11.97 200.25,-10.34"/>
<polygon fill="#63b8ff" stroke="#63b8ff" points="200.28,-6.84 190.18,-10.04 200.07,-13.84 200.28,-6.84"/>
</a>
</g>
</g>
<!-- Node10&#45;&gt;Node9 -->
<g id="edge15_Node000010_Node000009" class="edge">
<title>Node10&#45;&gt;Node9</title>
<g id="a_edge15_Node000010_Node000009"><a xlink:title=" ">
<path fill="none" stroke="#63b8ff" d="M339.59,-120.87C330.92,-111.97 317.2,-97.89 306.54,-86.95"/>
<polygon fill="#63b8ff" stroke="#63b8ff" points="308.93,-84.39 299.45,-79.67 303.92,-89.27 308.93,-84.39"/>
</a>
</g>
</g>
<!-- Node11 -->
<g id="Node000011" class="node">
<title>Node11</title>
<g id="a_Node000011"><a xlink:title=" ">
<polygon fill="#e0e0e0" stroke="#999999" points="469.5,-79.5 376.5,-79.5 376.5,-60.5 469.5,-60.5 469.5,-79.5"/>
<text text-anchor="middle" x="423" y="-67.5" font-family="Helvetica,sans-Serif" font-size="10.00">spdlog/spdlog.h</text>
</a>
</g>
</g>
<!-- Node10&#45;&gt;Node11 -->
<g id="edge12_Node000010_Node000011" class="edge">
<title>Node10&#45;&gt;Node11</title>
<g id="a_edge12_Node000010_Node000011"><a xlink:title=" ">
<path fill="none" stroke="#63b8ff" d="M359.07,-120.87C370.81,-111.71 389.59,-97.06 403.76,-86.01"/>
<polygon fill="#63b8ff" stroke="#63b8ff" points="406.16,-88.58 411.89,-79.67 401.85,-83.06 406.16,-88.58"/>
</a>
</g>
</g>
<!-- Node12 -->
<g id="Node000012" class="node">
<title>Node12</title>
<g id="a_Node000012"><a xlink:title=" ">
<polygon fill="#e0e0e0" stroke="#999999" points="594,-85 488,-85 488,-55 594,-55 594,-85"/>
<text text-anchor="start" x="496" y="-73" font-family="Helvetica,sans-Serif" font-size="10.00">spdlog/sinks/basic</text>
<text text-anchor="middle" x="541" y="-62" font-family="Helvetica,sans-Serif" font-size="10.00">_file_sink.h</text>
</a>
</g>
</g>
<!-- Node10&#45;&gt;Node12 -->
<g id="edge13_Node000010_Node000012" class="edge">
<title>Node10&#45;&gt;Node12</title>
<g id="a_edge13_Node000010_Node000012"><a xlink:title=" ">
<path fill="none" stroke="#63b8ff" d="M376.06,-120.99C404.45,-112.39 449.1,-98.86 484.79,-88.04"/>
<polygon fill="#63b8ff" stroke="#63b8ff" points="486.05,-91.31 494.6,-85.06 484.01,-84.62 486.05,-91.31"/>
</a>
</g>
</g>
<!-- Node13 -->
<g id="Node000013" class="node">
<title>Node13</title>
<g id="a_Node000013"><a xlink:title=" ">
<polygon fill="#e0e0e0" stroke="#999999" points="723.5,-85 612.5,-85 612.5,-55 723.5,-55 723.5,-85"/>
<text text-anchor="start" x="620.5" y="-73" font-family="Helvetica,sans-Serif" font-size="10.00">spdlog/sinks/stdout</text>
<text text-anchor="middle" x="668" y="-62" font-family="Helvetica,sans-Serif" font-size="10.00">_color_sinks.h</text>
</a>
</g>
</g>
<!-- Node10&#45;&gt;Node13 -->
<g id="edge14_Node000010_Node000013" class="edge">
<title>Node10&#45;&gt;Node13</title>
<g id="a_edge14_Node000010_Node000013"><a xlink:title=" ">
<path fill="none" stroke="#63b8ff" d="M387.75,-122.61C449.5,-111.89 564.62,-91.89 602.43,-84.99"/>
<polygon fill="#63b8ff" stroke="#63b8ff" points="603.17,-88.41 612.36,-83.13 601.89,-81.53 603.17,-88.41"/>
</a>
</g>
</g>
</g>
</svg>
