<?xml version="1.0" encoding="UTF-8" standalone="no"?>
<!DOCTYPE svg PUBLIC "-//W3C//DTD SVG 1.1//EN"
 "http://www.w3.org/Graphics/SVG/1.1/DTD/svg11.dtd">
<!-- Generated by graphviz version 2.43.0 (0)
 -->
<!-- Title: /media/psanodiya/workspace/cpp/cpp&#45;odbc&#45;wrapper/include/odbccpp/odbcinterface.h Pages: 1 -->
<svg width="358pt" height="203pt"
 viewBox="0.00 0.00 358.00 203.00" xmlns="http://www.w3.org/2000/svg" xmlns:xlink="http://www.w3.org/1999/xlink">
<g id="graph0" class="graph" transform="scale(1 1) rotate(0) translate(4 199)">
<title>/media/psanodiya/workspace/cpp/cpp&#45;odbc&#45;wrapper/include/odbccpp/odbcinterface.h</title>
<!-- Node1 -->
<g id="Node000001" class="node">
<title>Node1</title>
<g id="a_Node000001"><a xlink:title=" ">
<polygon fill="#999999" stroke="#666666" points="258,-195 92,-195 92,-154 258,-154 258,-195"/>
<text text-anchor="start" x="100" y="-183" font-family="Helvetica,sans-Serif" font-size="10.00">/media/psanodiya/workspace</text>
<text text-anchor="start" x="100" y="-172" font-family="Helvetica,sans-Serif" font-size="10.00">/cpp/cpp&#45;odbc&#45;wrapper/include</text>
<text text-anchor="middle" x="175" y="-161" font-family="Helvetica,sans-Serif" font-size="10.00">/odbccpp/odbcinterface.h</text>
</a>
</g>
</g>
<!-- Node2 -->
<g id="Node000002" class="node">
<title>Node2</title>
<g id="a_Node000002"><a xlink:href="odbcexecutor_8h.html" target="_top" xlink:title=" ">
<polygon fill="white" stroke="#666666" points="166,-118 0,-118 0,-77 166,-77 166,-118"/>
<text text-anchor="start" x="8" y="-106" font-family="Helvetica,sans-Serif" font-size="10.00">/media/psanodiya/workspace</text>
<text text-anchor="start" x="8" y="-95" font-family="Helvetica,sans-Serif" font-size="10.00">/cpp/cpp&#45;odbc&#45;wrapper/include</text>
<text text-anchor="middle" x="83" y="-84" font-family="Helvetica,sans-Serif" font-size="10.00">/odbccpp/odbcexecutor.h</text>
</a>
</g>
</g>
<!-- Node1&#45;&gt;Node2 -->
<g id="edge1_Node000001_Node000002" class="edge">
<title>Node1&#45;&gt;Node2</title>
<g id="a_edge1_Node000001_Node000002"><a xlink:title=" ">
<path fill="none" stroke="#63b8ff" d="M142.92,-147.35C131.12,-137.73 117.98,-127.01 107.01,-118.07"/>
<polygon fill="#63b8ff" stroke="#63b8ff" points="140.87,-150.19 150.83,-153.79 145.29,-144.76 140.87,-150.19"/>
</a>
</g>
</g>
<!-- Node5 -->
<g id="Node000005" class="node">
<title>Node5</title>
<g id="a_Node000005"><a xlink:href="odbcwrapper_8h.html" target="_top" xlink:title=" ">
<polygon fill="white" stroke="#666666" points="350,-118 184,-118 184,-77 350,-77 350,-118"/>
<text text-anchor="start" x="192" y="-106" font-family="Helvetica,sans-Serif" font-size="10.00">/media/psanodiya/workspace</text>
<text text-anchor="start" x="192" y="-95" font-family="Helvetica,sans-Serif" font-size="10.00">/cpp/cpp&#45;odbc&#45;wrapper/include</text>
<text text-anchor="middle" x="267" y="-84" font-family="Helvetica,sans-Serif" font-size="10.00">/odbccpp/odbcwrapper.h</text>
</a>
</g>
</g>
<!-- Node1&#45;&gt;Node5 -->
<g id="edge4_Node000001_Node000005" class="edge">
<title>Node1&#45;&gt;Node5</title>
<g id="a_edge4_Node000001_Node000005"><a xlink:title=" ">
<path fill="none" stroke="#63b8ff" d="M207.08,-147.35C218.88,-137.73 232.02,-127.01 242.99,-118.07"/>
<polygon fill="#63b8ff" stroke="#63b8ff" points="204.71,-144.76 199.17,-153.79 209.13,-150.19 204.71,-144.76"/>
</a>
</g>
</g>
<!-- Node3 -->
<g id="Node000003" class="node">
<title>Node3</title>
<g id="a_Node000003"><a xlink:href="odbcexecutor_8cpp.html" target="_top" xlink:title=" ">
<polygon fill="white" stroke="#666666" points="162.5,-41 3.5,-41 3.5,0 162.5,0 162.5,-41"/>
<text text-anchor="start" x="11.5" y="-29" font-family="Helvetica,sans-Serif" font-size="10.00">/media/psanodiya/workspace</text>
<text text-anchor="start" x="11.5" y="-18" font-family="Helvetica,sans-Serif" font-size="10.00">/cpp/cpp&#45;odbc&#45;wrapper/src</text>
<text text-anchor="middle" x="83" y="-7" font-family="Helvetica,sans-Serif" font-size="10.00">/odbcexecutor.cpp</text>
</a>
</g>
</g>
<!-- Node2&#45;&gt;Node3 -->
<g id="edge2_Node000002_Node000003" class="edge">
<title>Node2&#45;&gt;Node3</title>
<g id="a_edge2_Node000002_Node000003"><a xlink:title=" ">
<path fill="none" stroke="#63b8ff" d="M83,-66.69C83,-58.08 83,-48.9 83,-41.07"/>
<polygon fill="#63b8ff" stroke="#63b8ff" points="79.5,-66.79 83,-76.79 86.5,-66.79 79.5,-66.79"/>
</a>
</g>
</g>
<!-- Node4 -->
<g id="Node000004" class="node">
<title>Node4</title>
<g id="a_Node000004"><a xlink:href="odbcwrapper_8cpp.html" target="_top" xlink:title=" ">
<polygon fill="white" stroke="#666666" points="342.5,-41 183.5,-41 183.5,0 342.5,0 342.5,-41"/>
<text text-anchor="start" x="191.5" y="-29" font-family="Helvetica,sans-Serif" font-size="10.00">/media/psanodiya/workspace</text>
<text text-anchor="start" x="191.5" y="-18" font-family="Helvetica,sans-Serif" font-size="10.00">/cpp/cpp&#45;odbc&#45;wrapper/src</text>
<text text-anchor="middle" x="263" y="-7" font-family="Helvetica,sans-Serif" font-size="10.00">/odbcwrapper.cpp</text>
</a>
</g>
</g>
<!-- Node2&#45;&gt;Node4 -->
<g id="edge3_Node000002_Node000004" class="edge">
<title>Node2&#45;&gt;Node4</title>
<g id="a_edge3_Node000002_Node000004"><a xlink:title=" ">
<path fill="none" stroke="#63b8ff" d="M139.08,-73.13C163.81,-62.83 192.53,-50.86 216.1,-41.04"/>
<polygon fill="#63b8ff" stroke="#63b8ff" points="137.71,-69.91 129.82,-76.99 140.4,-76.37 137.71,-69.91"/>
</a>
</g>
</g>
<!-- Node5&#45;&gt;Node4 -->
<g id="edge5_Node000005_Node000004" class="edge">
<title>Node5&#45;&gt;Node4</title>
<g id="a_edge5_Node000005_Node000004"><a xlink:title=" ">
<path fill="none" stroke="#63b8ff" d="M265.41,-66.69C264.95,-58.08 264.46,-48.9 264.04,-41.07"/>
<polygon fill="#63b8ff" stroke="#63b8ff" points="261.92,-67 265.95,-76.79 268.91,-66.62 261.92,-67"/>
</a>
</g>
</g>
</g>
</svg>
