<?xml version="1.0" encoding="UTF-8" standalone="no"?>
<!DOCTYPE svg PUBLIC "-//W3C//DTD SVG 1.1//EN"
 "http://www.w3.org/Graphics/SVG/1.1/DTD/svg11.dtd">
<!-- Generated by graphviz version 2.43.0 (0)
 -->
<!-- Title: /media/psanodiya/workspace/cpp/cpp&#45;odbc&#45;wrapper/include/odbccpp/odbcwrapper.h Pages: 1 -->
<svg width="335pt" height="159pt"
 viewBox="0.00 0.00 335.00 159.00" xmlns="http://www.w3.org/2000/svg" xmlns:xlink="http://www.w3.org/1999/xlink">
<g id="graph0" class="graph" transform="scale(1 1) rotate(0) translate(4 155)">
<title>/media/psanodiya/workspace/cpp/cpp&#45;odbc&#45;wrapper/include/odbccpp/odbcwrapper.h</title>
<!-- Node1 -->
<g id="Node000001" class="node">
<title>Node1</title>
<g id="a_Node000001"><a xlink:title=" ">
<polygon fill="#999999" stroke="#666666" points="284,-151 118,-151 118,-110 284,-110 284,-151"/>
<text text-anchor="start" x="126" y="-139" font-family="Helvetica,sans-Serif" font-size="10.00">/media/psanodiya/workspace</text>
<text text-anchor="start" x="126" y="-128" font-family="Helvetica,sans-Serif" font-size="10.00">/cpp/cpp&#45;odbc&#45;wrapper/include</text>
<text text-anchor="middle" x="201" y="-117" font-family="Helvetica,sans-Serif" font-size="10.00">/odbccpp/odbcwrapper.h</text>
</a>
</g>
</g>
<!-- Node2 -->
<g id="Node000002" class="node">
<title>Node2</title>
<g id="a_Node000002"><a xlink:href="odbcinterface_8h.html" target="_top" xlink:title=" ">
<polygon fill="white" stroke="#666666" points="147,-74 11,-74 11,-55 147,-55 147,-74"/>
<text text-anchor="middle" x="79" y="-62" font-family="Helvetica,sans-Serif" font-size="10.00">odbccpp/odbcinterface.h</text>
</a>
</g>
</g>
<!-- Node1&#45;&gt;Node2 -->
<g id="edge1_Node000001_Node000002" class="edge">
<title>Node1&#45;&gt;Node2</title>
<g id="a_edge1_Node000001_Node000002"><a xlink:title=" ">
<path fill="none" stroke="#63b8ff" d="M163.73,-109.95C144.46,-99.84 121.44,-87.76 104.26,-78.75"/>
<polygon fill="#63b8ff" stroke="#63b8ff" points="105.86,-75.64 95.38,-74.09 102.61,-81.84 105.86,-75.64"/>
</a>
</g>
</g>
<!-- Node5 -->
<g id="Node000005" class="node">
<title>Node5</title>
<g id="a_Node000005"><a xlink:title=" ">
<polygon fill="#e0e0e0" stroke="#999999" points="190,-19 146,-19 146,0 190,0 190,-19"/>
<text text-anchor="middle" x="168" y="-7" font-family="Helvetica,sans-Serif" font-size="10.00">string</text>
</a>
</g>
</g>
<!-- Node1&#45;&gt;Node5 -->
<g id="edge5_Node000001_Node000005" class="edge">
<title>Node1&#45;&gt;Node5</title>
<g id="a_edge5_Node000001_Node000005"><a xlink:title=" ">
<path fill="none" stroke="#63b8ff" d="M195.55,-109.85C189.32,-87.37 179.19,-50.86 173.11,-28.91"/>
<polygon fill="#63b8ff" stroke="#63b8ff" points="176.45,-27.88 170.41,-19.18 169.71,-29.75 176.45,-27.88"/>
</a>
</g>
</g>
<!-- Node6 -->
<g id="Node000006" class="node">
<title>Node6</title>
<g id="a_Node000006"><a xlink:title=" ">
<polygon fill="#e0e0e0" stroke="#999999" points="250.5,-74 203.5,-74 203.5,-55 250.5,-55 250.5,-74"/>
<text text-anchor="middle" x="227" y="-62" font-family="Helvetica,sans-Serif" font-size="10.00">vector</text>
</a>
</g>
</g>
<!-- Node1&#45;&gt;Node6 -->
<g id="edge6_Node000001_Node000006" class="edge">
<title>Node1&#45;&gt;Node6</title>
<g id="a_edge6_Node000001_Node000006"><a xlink:title=" ">
<path fill="none" stroke="#63b8ff" d="M208.94,-109.95C212.34,-101.58 216.29,-91.85 219.63,-83.64"/>
<polygon fill="#63b8ff" stroke="#63b8ff" points="222.92,-84.84 223.44,-74.26 216.43,-82.21 222.92,-84.84"/>
</a>
</g>
</g>
<!-- Node7 -->
<g id="Node000007" class="node">
<title>Node7</title>
<g id="a_Node000007"><a xlink:title=" ">
<polygon fill="#e0e0e0" stroke="#999999" points="327,-74 269,-74 269,-55 327,-55 327,-74"/>
<text text-anchor="middle" x="298" y="-62" font-family="Helvetica,sans-Serif" font-size="10.00">memory</text>
</a>
</g>
</g>
<!-- Node1&#45;&gt;Node7 -->
<g id="edge7_Node000001_Node000007" class="edge">
<title>Node1&#45;&gt;Node7</title>
<g id="a_edge7_Node000001_Node000007"><a xlink:title=" ">
<path fill="none" stroke="#63b8ff" d="M230.63,-109.95C245.39,-100.21 262.91,-88.65 276.38,-79.76"/>
<polygon fill="#63b8ff" stroke="#63b8ff" points="278.56,-82.52 284.98,-74.09 274.7,-76.68 278.56,-82.52"/>
</a>
</g>
</g>
<!-- Node3 -->
<g id="Node000003" class="node">
<title>Node3</title>
<g id="a_Node000003"><a xlink:title=" ">
<polygon fill="#e0e0e0" stroke="#999999" points="40,-19 0,-19 0,0 40,0 40,-19"/>
<text text-anchor="middle" x="20" y="-7" font-family="Helvetica,sans-Serif" font-size="10.00">sql.h</text>
</a>
</g>
</g>
<!-- Node2&#45;&gt;Node3 -->
<g id="edge2_Node000002_Node000003" class="edge">
<title>Node2&#45;&gt;Node3</title>
<g id="a_edge2_Node000002_Node000003"><a xlink:title=" ">
<path fill="none" stroke="#63b8ff" d="M69.52,-54.98C60.8,-47.15 47.66,-35.34 37.1,-25.86"/>
<polygon fill="#63b8ff" stroke="#63b8ff" points="39.43,-23.25 29.65,-19.17 34.75,-28.46 39.43,-23.25"/>
</a>
</g>
</g>
<!-- Node4 -->
<g id="Node000004" class="node">
<title>Node4</title>
<g id="a_Node000004"><a xlink:title=" ">
<polygon fill="#e0e0e0" stroke="#999999" points="114,-19 58,-19 58,0 114,0 114,-19"/>
<text text-anchor="middle" x="86" y="-7" font-family="Helvetica,sans-Serif" font-size="10.00">sqlext.h</text>
</a>
</g>
</g>
<!-- Node2&#45;&gt;Node4 -->
<g id="edge3_Node000002_Node000004" class="edge">
<title>Node2&#45;&gt;Node4</title>
<g id="a_edge3_Node000002_Node000004"><a xlink:title=" ">
<path fill="none" stroke="#63b8ff" d="M80.16,-54.75C81.07,-47.8 82.39,-37.85 83.54,-29.13"/>
<polygon fill="#63b8ff" stroke="#63b8ff" points="87.03,-29.46 84.87,-19.09 80.09,-28.54 87.03,-29.46"/>
</a>
</g>
</g>
<!-- Node2&#45;&gt;Node5 -->
<g id="edge4_Node000002_Node000005" class="edge">
<title>Node2&#45;&gt;Node5</title>
<g id="a_edge4_Node000002_Node000005"><a xlink:title=" ">
<path fill="none" stroke="#63b8ff" d="M93.3,-54.98C107.1,-46.77 128.24,-34.18 144.51,-24.49"/>
<polygon fill="#63b8ff" stroke="#63b8ff" points="146.64,-27.29 153.44,-19.17 143.06,-21.28 146.64,-27.29"/>
</a>
</g>
</g>
</g>
</svg>
